<svg t="1757503571236" class="icon" viewBox="0 0 1024 1024" version="1.1" xmlns="http://www.w3.org/2000/svg"
     p-id="27819" width="45" height="45">
    <path d="M727.04 931.84c-20.48 0-40.96-15.36-40.96-40.96v-87.04c0-35.84-15.36-66.56-40.96-92.16s-56.32-40.96-92.16-40.96H215.04c-35.84 0-66.56 15.36-92.16 40.96s-40.96 56.32-40.96 92.16v87.04c0 20.48-15.36 40.96-40.96 40.96s-40.96-15.36-40.96-40.96v-87.04c0-56.32 20.48-107.52 61.44-148.48 40.96-40.96 92.16-61.44 148.48-61.44h343.04c56.32 0 107.52 20.48 148.48 61.44 40.96 40.96 61.44 92.16 61.44 148.48v87.04c0 25.6-15.36 40.96-35.84 40.96zM384 506.88c-117.76 0-209.92-92.16-209.92-209.92s92.16-209.92 209.92-209.92 209.92 92.16 209.92 209.92-92.16 209.92-209.92 209.92z m0-343.04c-71.68 0-133.12 61.44-133.12 133.12s61.44 133.12 133.12 133.12 133.12-61.44 133.12-133.12-61.44-133.12-133.12-133.12zM983.04 931.84c-20.48 0-40.96-15.36-40.96-40.96v-87.04c0-30.72-10.24-56.32-25.6-81.92s-40.96-40.96-71.68-46.08c-20.48-5.12-30.72-25.6-25.6-46.08s25.6-30.72 46.08-25.6c46.08 10.24 87.04 35.84 112.64 76.8 30.72 35.84 46.08 81.92 46.08 128v87.04c-5.12 20.48-20.48 35.84-40.96 35.84zM680.96 501.76c-15.36 0-30.72-10.24-35.84-30.72-5.12-20.48 5.12-40.96 25.6-46.08 30.72-5.12 56.32-25.6 71.68-46.08 20.48-25.6 25.6-51.2 25.6-81.92s-10.24-56.32-25.6-81.92-40.96-40.96-71.68-46.08c-20.48-5.12-30.72-25.6-25.6-46.08s25.6-30.72 46.08-25.6c46.08 10.24 87.04 35.84 112.64 76.8 30.72 35.84 46.08 81.92 46.08 128s-15.36 92.16-46.08 128-66.56 61.44-112.64 76.8c0-5.12-5.12-5.12-10.24-5.12z"
          fill="#bfbfbf" p-id="27820"></path>
</svg>